<svg class="motif" viewBox="0 0 800 70" xmlns="http://www.w3.org/2000/svg" aria-hidden="true">
  <line x1="4" y1="56" x2="796" y2="56" stroke="#CDCAC4" stroke-width="1"/>
  <line x1="7.9" y1="11.1" x2="7.9" y2="56" stroke="#DAD7D1" stroke-width="1"/>
  <circle cx="7.9" cy="11.1" r="3" fill="#A8A29A"/>
  <circle cx="7.9" cy="56" r="2" fill="#7A756D"/>
  <line x1="49.0" y1="8.5" x2="49.0" y2="56" stroke="#DAD7D1" stroke-width="1"/>
  <circle cx="49.0" cy="8.5" r="3" fill="#A8A29A"/>
  <circle cx="49.0" cy="56" r="2" fill="#7A756D"/>
  <line x1="84.7" y1="18.4" x2="84.7" y2="56" stroke="#DAD7D1" stroke-width="1"/>
  <circle cx="84.7" cy="18.4" r="3" fill="#A8A29A"/>
  <circle cx="84.7" cy="56" r="2" fill="#7A756D"/>
  <line x1="116.1" y1="23.3" x2="116.1" y2="56" stroke="#DAD7D1" stroke-width="1"/>
  <circle cx="116.1" cy="23.3" r="3" fill="#A8A29A"/>
  <circle cx="116.1" cy="56" r="2" fill="#7A756D"/>
  <line x1="153.0" y1="20.7" x2="153.0" y2="56" stroke="#DAD7D1" stroke-width="1"/>
  <circle cx="153.0" cy="20.7" r="3" fill="#A8A29A"/>
  <circle cx="153.0" cy="56" r="2" fill="#7A756D"/>
  <line x1="190.6" y1="9.1" x2="190.6" y2="56" stroke="#DAD7D1" stroke-width="1"/>
  <circle cx="190.6" cy="9.1" r="3" fill="#A8A29A"/>
  <circle cx="190.6" cy="56" r="2" fill="#7A756D"/>
  <line x1="232.0" y1="34.1" x2="232.0" y2="56" stroke="#DAD7D1" stroke-width="1"/>
  <circle cx="232.0" cy="34.1" r="3" fill="#A8A29A"/>
  <circle cx="232.0" cy="56" r="2" fill="#7A756D"/>
  <line x1="265.5" y1="13.6" x2="265.5" y2="56" stroke="#DAD7D1" stroke-width="1"/>
  <circle cx="265.5" cy="13.6" r="3" fill="#A8A29A"/>
  <circle cx="265.5" cy="56" r="2" fill="#7A756D"/>
  <line x1="308.7" y1="38.2" x2="308.7" y2="56" stroke="#DAD7D1" stroke-width="1"/>
  <circle cx="308.7" cy="38.2" r="3" fill="#A8A29A"/>
  <circle cx="308.7" cy="56" r="2" fill="#7A756D"/>
  <line x1="345.2" y1="19.5" x2="345.2" y2="56" stroke="#DAD7D1" stroke-width="1"/>
  <circle cx="345.2" cy="19.5" r="3" fill="#A8A29A"/>
  <circle cx="345.2" cy="56" r="2" fill="#7A756D"/>
  <line x1="387.1" y1="7.6" x2="387.1" y2="56" stroke="#DAD7D1" stroke-width="1"/>
  <circle cx="387.1" cy="7.6" r="3" fill="#A8A29A"/>
  <circle cx="387.1" cy="56" r="2" fill="#7A756D"/>
  <line x1="422.9" y1="15.8" x2="422.9" y2="56" stroke="#DAD7D1" stroke-width="1"/>
  <circle cx="422.9" cy="15.8" r="3" fill="#A8A29A"/>
  <circle cx="422.9" cy="56" r="2" fill="#7A756D"/>
  <line x1="451.4" y1="10.0" x2="451.4" y2="56" stroke="#DAD7D1" stroke-width="1"/>
  <circle cx="451.4" cy="10.0" r="3" fill="#A8A29A"/>
  <circle cx="451.4" cy="56" r="2" fill="#7A756D"/>
  <line x1="490.6" y1="33.7" x2="490.6" y2="56" stroke="#DAD7D1" stroke-width="1"/>
  <circle cx="490.6" cy="33.7" r="3" fill="#A8A29A"/>
  <circle cx="490.6" cy="56" r="2" fill="#7A756D"/>
  <line x1="526.2" y1="25.8" x2="526.2" y2="56" stroke="#DAD7D1" stroke-width="1"/>
  <circle cx="526.2" cy="25.8" r="3" fill="#A8A29A"/>
  <circle cx="526.2" cy="56" r="2" fill="#7A756D"/>
  <line x1="568.8" y1="18.7" x2="568.8" y2="56" stroke="#DAD7D1" stroke-width="1"/>
  <circle cx="568.8" cy="18.7" r="3" fill="#A8A29A"/>
  <circle cx="568.8" cy="56" r="2" fill="#7A756D"/>
  <line x1="604.9" y1="8.1" x2="604.9" y2="56" stroke="#DAD7D1" stroke-width="1"/>
  <circle cx="604.9" cy="8.1" r="3" fill="#A8A29A"/>
  <circle cx="604.9" cy="56" r="2" fill="#7A756D"/>
  <line x1="636.1" y1="13.0" x2="636.1" y2="56" stroke="#DAD7D1" stroke-width="1"/>
  <circle cx="636.1" cy="13.0" r="3" fill="#A8A29A"/>
  <circle cx="636.1" cy="56" r="2" fill="#7A756D"/>
  <line x1="680.7" y1="20.5" x2="680.7" y2="56" stroke="#DAD7D1" stroke-width="1"/>
  <circle cx="680.7" cy="20.5" r="3" fill="#A8A29A"/>
  <circle cx="680.7" cy="56" r="2" fill="#7A756D"/>
  <line x1="713.5" y1="25.9" x2="713.5" y2="56" stroke="#DAD7D1" stroke-width="1"/>
  <circle cx="713.5" cy="25.9" r="3" fill="#A8A29A"/>
  <circle cx="713.5" cy="56" r="2" fill="#7A756D"/>
  <line x1="752.3" y1="16.2" x2="752.3" y2="56" stroke="#DAD7D1" stroke-width="1"/>
  <circle cx="752.3" cy="16.2" r="3" fill="#A8A29A"/>
  <circle cx="752.3" cy="56" r="2" fill="#7A756D"/>
  <line x1="793.5" y1="29.8" x2="793.5" y2="56" stroke="#DAD7D1" stroke-width="1"/>
  <circle cx="793.5" cy="29.8" r="3" fill="#A8A29A"/>
  <circle cx="793.5" cy="56" r="2" fill="#7A756D"/>
</svg>